Coordinates
version=1
nRows=6
nColumns=63
inDegrees=yes

Units are S.I. units (second, meters, Newtons, ...)
If the header above contains a line with 'inDegrees', this indicates whether rotational values are in degrees (yes) or radians (no).

endheader
time	pelvis_tilt	pelvis_list	pelvis_rotation	pelvis_tx	pelvis_ty	pelvis_tz	hip_flexion_r	hip_adduction_r	hip_rotation_r	knee_angle_r	knee_angle_r_beta	ankle_angle_r	subtalar_angle_r	mtp_angle_r	hip_flexion_l	hip_adduction_l	hip_rotation_l	knee_angle_l	knee_angle_l_beta	ankle_angle_l	subtalar_angle_l	mtp_angle_l	L5_S1_Flex_Ext	L5_S1_Lat_Bending	L5_S1_axial_rotation	L4_L5_Flex_Ext	L4_L5_Lat_Bending	L4_L5_axial_rotation	L3_L4_Flex_Ext	L3_L4_Lat_Bending	L3_L4_axial_rotation	L2_L3_Flex_Ext	L2_L3_Lat_Bending	L2_L3_axial_rotation	L1_L2_Flex_Ext	L1_L2_Lat_Bending	L1_L2_axial_rotation	L1_T12_Flex_Ext	L1_T12_Lat_Bending	L1_T12_axial_rotation	Abs_r3	Abs_r2	Abs_r1	Abs_t1	Abs_t2	neck_flexion	neck_bending	neck_rotation	arm_flex_r	arm_add_r	arm_rot_r	elbow_flex_r	pro_sup_r	wrist_flex_r	wrist_dev_r	arm_flex_l	arm_add_l	arm_rot_l	elbow_flex_l	pro_sup_l	wrist_flex_l	wrist_dev_l
      2.16666667	     -6.13724570	      0.50437903	     94.44422203	      0.19495400	      0.97436242	      0.50441912	      0.39155245	     -5.27186994	     -9.88170261	      7.91969953	      0.13822483	     30.55945342	     16.39243285	      0.00000000	     -0.22374434	      4.58353138	     -1.39342188	      2.11113006	      0.03684617	     24.92498722	      2.46976446	      0.00000000	     -0.12955982	     -1.17066852	     -0.40073676	     -0.24060555	     -1.55698913	     -0.42578281	     -0.21285383	     -2.84636344	     -0.42578281	     -0.14807392	     -2.84636344	     -0.35064467	     -0.12030925	     -2.38722724	     -0.32559862	     -0.07403048	     -1.81336554	     -0.30055257	     -0.92543286	    -13.24283643	     -2.22877766	      0.00000000	      0.00000000	      6.56449460	    -29.67254068	     27.77424818	     35.29617572	      9.45983753	     44.02070634	    149.65477625	     89.51637924	     20.66467446	     28.20739563	     42.58724110	     -4.48383984	     43.00226819	    149.76594595	     89.14988986	     28.57459992	     22.90899927
      2.19047619	     -6.06541350	      0.66297884	     94.51509158	      0.19465176	      0.97449178	      0.50434751	      0.21050331	     -5.18446290	     -9.94203081	      7.92516828	      0.13832028	     30.34638290	     16.30922003	      0.00000000	     -0.39304092	      4.51062578	     -1.30019205	      2.11328715	      0.03688382	     24.98136376	      2.43560266	      0.00000000	     -0.13501764	     -1.16913363	     -0.40944329	     -0.25074125	     -1.55494772	     -0.43503349	     -0.22182047	     -2.84263150	     -0.43503349	     -0.15431166	     -2.84263150	     -0.35826288	     -0.12537738	     -2.38409729	     -0.33267267	     -0.07714908	     -1.81098799	     -0.30708247	     -0.96441747	    -13.22547342	     -2.27720074	      0.00000000	      0.00000000	      6.17347284	    -29.56854098	     26.98892039	     36.36724235	      9.42372702	     42.99930463	    149.60637678	     89.53472948	     20.60747531	     29.79432607	     42.63614981	     -4.37721505	     42.99335073	    149.76729175	     89.15637647	     28.73470698	     23.02248529
      2.21428571	     -6.06101796	      0.74862580	     94.54322339	      0.19432612	      0.97451919	      0.50438906	      0.12549495	     -5.19373040	    -10.07189415	      7.95887871	      0.13890864	     30.13232354	     16.21549306	      0.00000000	     -0.48920484	      4.52134365	     -1.22318611	      2.10455477	      0.03673141	     24.99913251	      2.38033016	      0.00000000	     -0.13724861	     -1.17324742	     -0.42053244	     -0.25488439	     -1.56041907	     -0.44681571	     -0.22548574	     -2.85263379	     -0.44681571	     -0.15686144	     -2.85263379	     -0.36796588	     -0.12744906	     -2.39248615	     -0.34168261	     -0.07842386	     -1.81736026	     -0.31539933	     -0.98035310	    -13.27200952	     -2.33887526	      0.00000000	      0.00000000	      5.85072187	    -29.37124740	     26.34628097	     37.21955766	      9.47807832	     42.24634800	    149.56980242	     89.54821849	     20.72433427	     31.17486178	     42.62362944	     -4.21751934	     42.74359432	    149.76288798	     89.16650516	     28.63099915	     23.18048970
      2.23809524	     -6.10720010	      0.76517522	     94.53094721	      0.19433954	      0.97447272	      0.50445881	      0.13419887	     -5.25390721	    -10.26909540	      8.05963461	      0.14066716	     29.98722677	     16.12554123	      0.00000000	     -0.51386396	      4.57213149	     -1.17379153	      2.09283621	      0.03652688	     24.97037423	      2.30396050	      0.00000000	     -0.13899729	     -1.18417057	     -0.41295061	     -0.25813186	     -1.57494686	     -0.43876003	     -0.22835864	     -2.87919233	     -0.43876003	     -0.15886000	     -2.87919233	     -0.36133179	     -0.12907288	     -2.41476064	     -0.33552237	     -0.07942305	     -1.83428022	     -0.30971296	     -0.99284372	    -13.39557437	     -2.29670742	      0.00000000	      0.00000000	      5.76852233	    -29.25619100	     25.85388764	     37.78324814	      9.62461475	     42.27578864	    149.53632650	     89.54765332	     20.57357245	     31.96460199	     42.64353033	     -4.05008367	     42.32515895	    149.75649722	     89.17434335	     28.28150731	     23.27355099
      2.26190476	     -6.11035447	      0.74821288	     94.50181920	      0.19463072	      0.97444425	      0.50442938	      0.13784021	     -5.24691086	    -10.45728753	      8.10398561	      0.14144123	     29.89732257	     16.00790244	      0.00000000	     -0.50330415	      4.56114339	     -1.18731869	      2.08112543	      0.03632249	     24.99501275	      2.27358302	      0.00000000	     -0.14351692	     -1.18987080	     -0.38965889	     -0.26652527	     -1.58252817	     -0.41401257	     -0.23578394	     -2.89305187	     -0.41401257	     -0.16402548	     -2.89305187	     -0.34095153	     -0.13326981	     -2.42638454	     -0.31659785	     -0.08200557	     -1.84310987	     -0.29224417	     -1.02512699	    -13.46005648	     -2.16716585	      0.00000000	      0.00000000	      5.80374333	    -29.19727545	     25.67085551	     37.93244074	      9.78861128	     43.09569159	    149.51448031	     89.51430873	     20.64201426	     31.93336992	     42.74561881	     -3.92433598	     41.91291038	    149.74198081	     89.16122020	     28.10342632	     23.20949004
      2.28571429	     -6.25307336	      0.63556662	     94.26228128	      0.19503119	      0.97405232	      0.50459678	      0.42265433	     -5.46085303	    -10.64824480	      8.45656575	      0.14759492	     30.10995529	     16.19180976	      0.00000000	     -0.38610706	      4.72209746	     -1.20414201	      2.07682954	      0.03624751	     24.91318274	      1.97000079	      0.00000000	     -0.14372023	     -1.20259164	     -0.33267715	     -0.26690285	     -1.59944689	     -0.35346948	     -0.23611797	     -2.92398132	     -0.35346948	     -0.16425786	     -2.92398132	     -0.29109251	     -0.13345861	     -2.45232488	     -0.27030019	     -0.08212174	     -1.86281445	     -0.24950787	     -1.02657926	    -13.60395718	     -1.85025053	      0.00000000	      0.00000000	      6.45706988	    -29.29122244	     25.71069759	     38.68389858	      9.38445124	     46.20375260	    149.55300754	     89.49127145	     15.91357414	     31.63220683	     42.72065202	     -4.04563864	     42.01880264	    149.73168005	     89.19221588	     26.20284834	     22.67527148
